<svg width="30" height="25" viewBox="0 0 30 25" fill="none" xmlns="http://www.w3.org/2000/svg">
<path fill-rule="evenodd" clip-rule="evenodd" d="M17.5838 4.82143C17.5838 7.48423 15.432 9.64286 12.7778 9.64286C10.1235 9.64286 7.97174 7.48423 7.97174 4.82143C7.97174 2.15863 10.1235 0 12.7778 0C15.432 0 17.5838 2.15863 17.5838 4.82143ZM15.9818 4.82143C15.9818 6.59663 14.5473 8.03571 12.7778 8.03571C11.0082 8.03571 9.57375 6.59663 9.57375 4.82143C9.57375 3.04623 11.0082 1.60714 12.7778 1.60714C14.5473 1.60714 15.9818 3.04623 15.9818 4.82143Z" fill="#fd9802"/>
<path d="M22.7552 17.7746C21.3153 14.6703 18.381 10.7143 12.7778 10.7143C10.0148 10.7143 7.91403 11.7444 6.3141 13.1226C5.77874 13.5837 6.13863 14.3996 6.84521 14.3996C7.04523 14.3996 7.2374 14.3257 7.39221 14.1991C8.75498 13.0842 10.5129 12.3214 12.7778 12.3214C17.4489 12.3214 19.9638 15.5661 21.3028 18.4527C21.4643 18.8009 21.4065 19.0873 21.2304 19.3239C21.0337 19.5882 20.6506 19.8214 20.1347 19.8214H12.5591C12.1153 19.8214 11.7555 20.1812 11.7555 20.625C11.7555 21.0688 12.1153 21.4286 12.5591 21.4286H20.1347C22.1397 21.4286 23.6011 19.5983 22.7552 17.7746Z" fill="#fd9802"/>
<path d="M5.11112 16.3265C5.11112 16.0448 4.88229 15.8163 4.60001 15.8163C4.31773 15.8163 4.0889 16.0448 4.0889 16.3265V19.898H0.511112C0.228833 19.898 0 20.1264 0 20.4082C0 20.6899 0.228833 20.9184 0.511112 20.9184H4.0889V24.4898C4.0889 24.7716 4.31773 25 4.60001 25C4.88229 25 5.11112 24.7716 5.11112 24.4898V20.9184H8.68891C8.97119 20.9184 9.20002 20.6899 9.20002 20.4082C9.20002 20.1264 8.97119 19.898 8.68891 19.898H5.11112V16.3265Z" fill="#fd9802"/>
<path fill-rule="evenodd" clip-rule="evenodd" d="M25.7782 6.6C25.7782 8.58823 24.1011 10.2 22.0322 10.2C19.9633 10.2 18.2861 8.58823 18.2861 6.6C18.2861 4.61177 19.9633 3 22.0322 3C24.1011 3 25.7782 4.61177 25.7782 6.6ZM24.5295 6.6C24.5295 7.92548 23.4114 9 22.0322 9C20.6529 9 19.5348 7.92548 19.5348 6.6C19.5348 5.27452 20.6529 4.2 22.0322 4.2C23.4114 4.2 24.5295 5.27452 24.5295 6.6Z" fill="#fd9802"/>
<path d="M29.8091 16.2717C28.6867 13.9538 26.3996 11 22.0322 11C21.8595 11 21.6901 11.0049 21.5239 11.0146C21.224 11.032 20.9999 11.2873 20.9999 11.5877C20.9999 11.9478 21.3181 12.2238 21.6778 12.2078C21.7941 12.2026 21.9122 12.2 22.0322 12.2C25.6731 12.2 27.6334 14.6227 28.677 16.778C28.8029 17.038 28.7579 17.2518 28.6206 17.4285C28.4673 17.6259 28.1687 17.8 27.7665 17.8H24.5999C24.2685 17.8 23.9999 18.0686 23.9999 18.4C23.9999 18.7314 24.2685 19 24.5999 19H27.7665C29.3293 19 30.4684 17.6334 29.8091 16.2717Z" fill="#fd9802"/>
</svg>
