<svg width="30" height="26" xmlns="http://www.w3.org/2000/svg" fill="none" viewBox="0 0 30 26">
    <path d="M19.4697 3.14747C17.4537 1.20614 14.6332 0 11.5115 0C5.384 0 0.416672 4.64724 0.416672 10.3799C0.416672 13.6494 1.90069 16.3294 4.42592 18.232C4.74885 18.4754 5.04629 19.8273 4.32647 20.9628C4.03212 21.4272 3.70807 21.7885 3.45861 22.0666C3.09802 22.4685 2.89326 22.6968 3.15928 22.8116C3.43675 22.9314 5.07624 22.9907 6.25956 22.3077C7.18574 21.7732 7.74668 21.2399 8.12444 20.8809C8.4368 20.5839 8.62391 20.4061 8.78871 20.445C9.37958 20.5844 9.9893 20.6796 10.6136 20.7263C10.6221 20.727 10.6307 20.7276 10.6392 20.7282C10.927 20.7492 11.2179 20.7598 11.5115 20.7598C17.639 20.7598 22.6063 16.1126 22.6063 10.3799C22.6063 7.56775 21.411 5.01679 19.4697 3.14747Z"
          fill="currentColor" />
    <path d="M29.6667 13.4939C29.6667 9.43866 27.181 5.92659 23.5574 4.21845C23.1166 4.01067 22.7194 4.54205 22.9503 4.98079C23.7993 6.59407 24.2806 8.42274 24.2806 10.3799C24.2806 16.1971 20.0283 20.8791 14.5092 22.1446C14.0245 22.2558 13.9172 22.9307 14.3828 23.1084C15.6753 23.6019 17.0896 23.8738 18.5718 23.8738C19.5113 23.8738 20.4235 23.7646 21.2946 23.5589C21.4594 23.52 21.6465 23.6979 21.9589 23.9948C22.3366 24.3539 22.8976 24.8872 23.8238 25.4217C25.0071 26.1046 26.6466 26.0454 26.9241 25.9256C27.1901 25.8108 26.9853 25.5825 26.6247 25.1805C26.3753 24.9024 26.0512 24.5412 25.7569 24.0768C25.0371 22.9412 25.3345 21.5893 25.6574 21.346C28.1827 19.4434 29.6667 16.7634 29.6667 13.4939Z"
          fill="currentColor" />
</svg>