<svg width="24" height="24" viewBox="0 0 24 24" fill="none" xmlns="http://www.w3.org/2000/svg">
    <path fill-rule="evenodd" clip-rule="evenodd" d="M12 24C18.6274 24 24 18.6274 24 12C24 5.37258 18.6274 0 12 0C5.37258 0 0 5.37258 0 12C0 18.6274 5.37258 24 12 24ZM16.1739 9.3913C16.1739 11.9846 14.3052 14.087 12 14.087C9.69481 14.087 7.82609 11.9846 7.82609 9.3913C7.82609 6.79797 9.69481 4.69565 12 4.69565C14.3052 4.69565 16.1739 6.79797 16.1739 9.3913ZM18.4432 17.9549C18.8373 18.2027 19.0343 18.3266 19.1644 18.603C19.2582 18.8025 19.2801 19.1659 19.2108 19.3752C19.1148 19.6652 18.933 19.8127 18.5694 20.1077C16.7758 21.5629 14.4897 22.4348 12 22.4348C9.51036 22.4348 7.22432 21.5629 5.43064 20.1077C5.06703 19.8127 4.88523 19.6652 4.78924 19.3752C4.71997 19.1659 4.74185 18.8025 4.83572 18.603C4.9658 18.3266 5.16283 18.2027 5.55689 17.9549C7.33102 16.8393 9.56839 16.1739 12 16.1739C14.4317 16.1739 16.6691 16.8393 18.4432 17.9549Z" fill="currentColor"/>
</svg>
