<svg width="24" height="24" viewBox="0 0 24 24" fill="none" xmlns="http://www.w3.org/2000/svg">
    <path d="M12 6.61017C12.4493 6.61017 12.8136 6.97441 12.8136 7.42373V11.1864H16.5763C17.0256 11.1864 17.3898 11.5507 17.3898 12C17.3898 12.4493 17.0256 12.8136 16.5763 12.8136H12.8136V16.5763C12.8136 17.0256 12.4493 17.3898 12 17.3898C11.5507 17.3898 11.1864 17.0256 11.1864 16.5763V12.8136H7.42373C6.97441 12.8136 6.61017 12.4493 6.61017 12C6.61017 11.5507 6.97441 11.1864 7.42373 11.1864H11.1864V7.42373C11.1864 6.97441 11.5507 6.61017 12 6.61017Z"
          fill="currentColor"/>
    <path fill-rule="evenodd" clip-rule="evenodd"
          d="M0 12C0 5.37258 5.37258 0 12 0C18.6274 0 24 5.37258 24 12C24 18.6274 18.6274 24 12 24C5.37258 24 0 18.6274 0 12ZM12 1.62712C6.27122 1.62712 1.62712 6.27122 1.62712 12C1.62712 17.7288 6.27122 22.3729 12 22.3729C17.7288 22.3729 22.3729 17.7288 22.3729 12C22.3729 6.27122 17.7288 1.62712 12 1.62712Z"
          fill="currentColor"/>
</svg>
