<svg width="24" height="24" viewBox="0 0 24 24" fill="none" xmlns="http://www.w3.org/2000/svg">
    <path d="M6.32286 3.33333C6.01449 3.33332 5.71851 3.33331 5.4353 3.33484C5.49883 2.87999 5.60195 2.51252 5.76932 2.18404C6.15281 1.43139 6.76473 0.819467 7.51738 0.435974C8.37303 0 9.49313 0 11.7333 0H17.6C19.8402 0 20.9603 0 21.816 0.435974C22.5686 0.819467 23.1805 1.43139 23.564 2.18404C24 3.03969 24 4.15979 24 6.4V12.2667C24 14.5069 24 15.627 23.564 16.4826C23.1805 17.2353 22.5686 17.8472 21.816 18.2307C21.4875 18.3981 21.12 18.5012 20.6652 18.5647C20.6667 18.2816 20.6667 17.9856 20.6667 17.6773V11.6563C20.6667 10.602 20.6667 9.69243 20.6055 8.94328C20.5409 8.15259 20.3983 7.36615 20.0127 6.60939C19.4375 5.48042 18.5196 4.56254 17.3906 3.9873C16.6339 3.60171 15.8474 3.45908 15.0567 3.39448C14.3076 3.33327 13.3981 3.3333 12.3438 3.33333H6.32286Z"
          fill="currentColor"/>
    <path d="M0.435974 7.51737C0 8.37302 0 9.49312 0 11.7333V17.6C0 19.8402 0 20.9603 0.435974 21.816C0.819467 22.5686 1.43139 23.1805 2.18404 23.564C3.03968 24 4.15979 24 6.4 24H12.2667C14.5069 24 15.627 24 16.4826 23.564C17.2353 23.1805 17.8472 22.5686 18.2307 21.816C18.6667 20.9603 18.6667 19.8402 18.6667 17.6V11.7333C18.6667 9.49312 18.6667 8.37302 18.2307 7.51737C17.8472 6.76472 17.2353 6.1528 16.4826 5.76931C15.627 5.33333 14.5069 5.33333 12.2667 5.33333H6.4C4.15979 5.33333 3.03968 5.33333 2.18404 5.76931C1.43139 6.1528 0.819467 6.76472 0.435974 7.51737Z"
          fill="currentColor"/>
</svg>
