<svg width="5" height="23" viewBox="0 0 5 23" fill="none" xmlns="http://www.w3.org/2000/svg">
<path d="M2.5 17.8889C3.88071 17.8889 5 19.0331 5 20.4444C5 21.8558 3.88071 23 2.5 23C1.11929 23 0 21.8558 0 20.4444C0 19.0331 1.11929 17.8889 2.5 17.8889Z" fill="black"/>
<path d="M2.5 8.94444C3.88071 8.94444 5 10.0886 5 11.5C5 12.9114 3.88071 14.0556 2.5 14.0556C1.11929 14.0556 0 12.9114 0 11.5C0 10.0886 1.11929 8.94444 2.5 8.94444Z" fill="black"/>
<path d="M5 2.55556C5 1.14416 3.88071 0 2.5 0C1.11929 0 0 1.14416 0 2.55556C0 3.96695 1.11929 5.11111 2.5 5.11111C3.88071 5.11111 5 3.96695 5 2.55556Z" fill="black"/>
</svg>
