<svg width="30" height="30" viewBox="0 0 30 30" fill="none" xmlns="http://www.w3.org/2000/svg">
<rect width="30" height="30" rx="7" fill="#AF52DE"/>
<path d="M24.7164 17.4263C24.9017 16.662 25 15.8634 25 15.0418C25 14.0774 24.8646 13.1447 24.6119 12.2619H19.4792C19.5398 13.0032 19.5714 13.7717 19.5714 14.5572C19.5714 15.5473 19.5212 16.5105 19.4259 17.4263H24.7164Z" fill="white"/>
<path d="M24.2117 18.9564H19.2177C19.044 19.9771 18.8104 20.9134 18.5256 21.7304C18.1975 22.6719 17.7783 23.5224 17.2513 24.1619C16.991 24.4777 16.6722 24.7784 16.2963 25C19.8709 24.5354 22.8534 22.1753 24.2117 18.9564Z" fill="white"/>
<path d="M18.1807 17.4263C18.2799 16.5205 18.3333 15.5568 18.3333 14.5572C18.3333 13.766 18.2998 12.9972 18.2367 12.2619H11.7633C11.7002 12.9972 11.6667 13.766 11.6667 14.5572C11.6667 15.5568 11.7201 16.5205 11.8193 17.4263H18.1807Z" fill="white"/>
<path d="M12.0395 18.9564H17.9605C17.4055 22.0247 16.2881 24.1208 15 24.1208C13.7119 24.1208 12.5945 22.0247 12.0395 18.9564Z" fill="white"/>
<path d="M10.5741 17.4263C10.4788 16.5105 10.4286 15.5473 10.4286 14.5572C10.4286 13.7717 10.4602 13.0032 10.5208 12.2619H5.38813C5.13539 13.1447 5 14.0774 5 15.0418C5 15.8634 5.09826 16.662 5.28362 17.4263H10.5741Z" fill="white"/>
<path d="M5.78834 18.9564H10.7823C10.956 19.9771 11.1896 20.9134 11.4744 21.7304C11.8025 22.6719 12.2217 23.5224 12.7487 24.1619C13.009 24.4777 13.3278 24.7784 13.7037 25C10.1291 24.5354 7.14658 22.1753 5.78834 18.9564Z" fill="white"/>
<path d="M17.53 5.32416C20.4076 6.07752 22.7805 8.08564 24.0346 10.7317H19.3077C19.1285 9.48702 18.8629 8.35175 18.5256 7.38396C18.2576 6.61484 17.9287 5.90641 17.53 5.32416Z" fill="white"/>
<path d="M15.1314 5.00085C16.4418 5.14663 17.5582 7.4628 18.056 10.7317H11.944C12.4418 7.4628 13.5582 5.14663 14.8686 5.00085C14.9123 5.00028 14.9561 5 15 5C15.0439 5 15.0877 5.00028 15.1314 5.00085Z" fill="white"/>
<path d="M11.4744 7.38396C11.1371 8.35175 10.8715 9.48702 10.6923 10.7317H5.96538C7.21947 8.08564 9.59243 6.07752 12.47 5.32416C12.0713 5.90641 11.7424 6.61484 11.4744 7.38396Z" fill="white"/>
</svg>
