<svg viewBox="0 0 879 272" fill="none" xmlns="http://www.w3.org/2000/svg">
    <path d="M619.223 203.998H591.275C577.9 204.172 565.252 194.869 561.531 182.018C552.552 153.349 574.507 123.199 604.571 123.051C611.154 122.959 617.527 124.244 623.528 126.88C625.677 127.824 626.654 130.331 625.71 132.48C624.766 134.628 622.259 135.605 620.111 134.661C615.232 132.518 610.046 131.47 604.695 131.549C584.497 131.842 568.064 148.52 568.064 168.727C567.829 182.957 576.141 195.292 591.275 195.499H619.223C634.822 195.254 642.904 182.449 642.421 167.962C642.265 160.156 639.697 152.724 634.995 146.47C634.442 145.733 634.143 144.837 634.143 143.916V120.497C634.143 111.124 626.518 103.499 617.145 103.499H593.348C583.976 103.499 576.351 111.124 576.351 120.497V121.559C576.126 127.197 568.074 127.193 567.852 121.559V120.497C567.852 106.438 579.29 95 593.348 95H617.145C631.204 95 642.642 106.438 642.642 120.497V142.535C650.8 153.948 653.091 169.163 648.812 182.506C644.995 195.138 632.412 204.168 619.223 203.998Z" fill="#F36F0F"/>
    <path d="M591.054 178V161.05H587.514V157.33L591.714 155.53H596.874V178H591.054ZM600.382 178.06C599.902 178.06 599.662 177.83 599.662 177.37V173.86C599.662 173.36 599.902 173.11 600.382 173.11H603.772C604.272 173.11 604.522 173.36 604.522 173.86V177.37C604.522 177.63 604.452 177.81 604.312 177.91C604.172 178.01 603.992 178.06 603.772 178.06H600.382ZM613.217 178.18C611.857 178.18 610.717 177.94 609.797 177.46C608.897 176.98 608.227 176.29 607.787 175.39C607.347 174.47 607.127 173.38 607.127 172.12V161.89C607.127 160.51 607.357 159.35 607.817 158.41C608.297 157.47 608.997 156.76 609.917 156.28C610.837 155.78 611.947 155.53 613.247 155.53H618.107C619.367 155.53 620.427 155.78 621.287 156.28C622.167 156.76 622.827 157.47 623.267 158.41C623.727 159.35 623.957 160.51 623.957 161.89V172.12C623.957 174 623.447 175.48 622.427 176.56C621.427 177.64 619.977 178.18 618.077 178.18H613.217ZM614.657 172.96H616.457C616.997 172.96 617.407 172.83 617.687 172.57C617.987 172.29 618.137 171.84 618.137 171.22V162.49C618.137 161.79 617.997 161.33 617.717 161.11C617.437 160.87 617.097 160.75 616.697 160.75H614.447C613.927 160.75 613.547 160.89 613.307 161.17C613.067 161.45 612.947 161.89 612.947 162.49V171.19C612.947 171.83 613.087 172.29 613.367 172.57C613.647 172.83 614.077 172.96 614.657 172.96Z" fill="#F36F0F"/>
    <path d="M41.4609 204V57.4H49.6609V126.8H79.0609L124.861 57.4H133.661L85.4609 130.6L133.861 204H124.861L78.8609 134.4H49.6609V204H41.4609ZM160.063 76.6C158.329 76.6 157.463 75.7333 157.463 74V60.6C157.463 58.8667 158.329 58 160.063 58H165.063C165.863 58 166.463 58.2667 166.863 58.8C167.263 59.3333 167.462 59.9333 167.462 60.6V74C167.462 75.7333 166.663 76.6 165.063 76.6H160.063ZM158.263 204V97.6H166.463V204H158.263ZM226.036 204C220.836 204 216.369 203 212.636 201C208.903 199 206.036 195.6 204.036 190.8C202.036 185.867 201.036 178.933 201.036 170V51.4H209.236V169.4C209.236 177 209.903 182.733 211.236 186.6C212.703 190.333 214.703 192.933 217.236 194.4C219.903 195.733 222.969 196.6 226.436 197L238.436 198.4V204H226.036ZM298.077 205.2C291.01 205.2 284.677 204.467 279.077 203C273.61 201.533 268.943 198.867 265.077 195C261.343 191.133 258.477 185.6 256.477 178.4C254.61 171.2 253.677 162 253.677 150.8C253.677 139.333 254.61 130.067 256.477 123C258.477 115.8 261.343 110.267 265.077 106.4C268.943 102.533 273.61 99.9333 279.077 98.6C284.677 97.1333 291.01 96.4 298.077 96.4C305.143 96.4 311.477 97.1333 317.077 98.6C322.677 100.067 327.343 102.733 331.077 106.6C334.943 110.333 337.877 115.8 339.877 123C341.877 130.067 342.877 139.333 342.877 150.8C342.877 162.133 341.877 171.4 339.877 178.6C337.877 185.8 334.943 191.333 331.077 195.2C327.343 198.933 322.677 201.533 317.077 203C311.477 204.467 305.143 205.2 298.077 205.2ZM298.077 198.2C303.81 198.2 308.943 197.667 313.477 196.6C318.01 195.533 321.81 193.4 324.877 190.2C328.077 186.867 330.477 182.067 332.077 175.8C333.81 169.4 334.677 161 334.677 150.6C334.677 140.067 333.81 131.667 332.077 125.4C330.477 119.133 328.077 114.467 324.877 111.4C321.81 108.2 318.01 106.067 313.477 105C308.943 103.933 303.81 103.4 298.077 103.4C292.343 103.4 287.21 103.933 282.677 105C278.143 106.067 274.343 108.2 271.277 111.4C268.21 114.467 265.877 119.133 264.277 125.4C262.677 131.667 261.877 140.067 261.877 150.6C261.877 161 262.677 169.4 264.277 175.8C265.877 182.067 268.21 186.867 271.277 190.2C274.343 193.4 278.143 195.533 282.677 196.6C287.21 197.667 292.343 198.2 298.077 198.2ZM398.702 252.8C391.768 252.8 385.635 251.8 380.302 249.8C375.102 247.933 370.968 245 367.902 241C364.968 237 363.502 231.933 363.502 225.8V220.2C363.502 213.8 365.235 208.533 368.702 204.4C372.168 200.267 376.502 197.2 381.702 195.2C386.902 193.2 392.168 192.2 397.502 192.2L398.702 197C394.035 197 389.635 197.733 385.502 199.2C381.368 200.667 377.902 203.067 375.102 206.4C372.435 209.733 371.102 214.067 371.102 219.4V225C371.102 232.867 373.702 238.333 378.902 241.4C384.235 244.6 391.235 246.2 399.902 246.2H426.902C436.635 246.2 444.235 244.333 449.702 240.6C455.302 236.867 458.102 231.067 458.102 223.2V218.6C458.102 214.2 457.235 210.4 455.502 207.2C453.902 204 451.035 201.533 446.902 199.8C442.902 197.933 437.102 197 429.502 197H392.702C386.568 197 381.502 195.533 377.502 192.6C373.635 189.533 371.702 185.4 371.702 180.2C371.702 175 373.302 171 376.502 168.2C379.702 165.4 384.235 163.467 390.102 162.4C384.635 160.533 380.435 157.867 377.502 154.4C374.568 150.933 372.502 147.2 371.302 143.2C370.235 139.067 369.702 135.067 369.702 131.2C369.702 122.8 371.435 116.133 374.902 111.2C378.368 106.133 383.035 102.533 388.902 100.4C394.902 98.2667 401.568 97.2 408.902 97.2H465.702V102.2L437.302 103.8C439.302 104.867 441.635 106.4 444.302 108.4C446.968 110.267 449.235 113.2 451.102 117.2C453.102 121.2 454.102 126.733 454.102 133.8C454.102 139 452.968 144.067 450.702 149C448.568 153.933 444.768 158.067 439.302 161.4C433.968 164.6 426.502 166.2 416.902 166.2H400.902C394.102 166.2 388.768 167.2 384.902 169.2C381.168 171.067 379.302 174.533 379.302 179.6C379.302 183.333 380.635 186.067 383.302 187.8C385.968 189.4 388.702 190.2 391.502 190.2H430.302C438.435 190.2 445.102 191.267 450.302 193.4C455.635 195.533 459.502 198.667 461.902 202.8C464.435 206.8 465.702 211.8 465.702 217.8V223C465.702 232.333 462.435 239.6 455.902 244.8C449.368 250.133 439.835 252.8 427.302 252.8H398.702ZM403.702 159.4H416.102C424.368 159.4 430.635 158.133 434.902 155.6C439.302 153.067 442.302 149.867 443.902 146C445.502 142 446.302 137.8 446.302 133.4C446.302 126.2 445.035 120.467 442.502 116.2C440.102 111.8 436.835 108.733 432.702 107C428.568 105.133 423.768 104.2 418.302 104.2H406.902C397.835 104.2 390.635 106.267 385.302 110.4C380.102 114.4 377.502 121.467 377.502 131.6C377.502 141.333 379.835 148.4 384.502 152.8C389.302 157.2 395.702 159.4 403.702 159.4ZM487.755 204V97.6H493.755L495.955 117.4C501.288 111.267 507.221 106.267 513.755 102.4C520.288 98.4 527.755 96.4 536.155 96.4C538.155 96.4 540.021 96.5333 541.755 96.8C543.488 96.9333 545.088 97.2 546.555 97.6V105.8C545.088 105.533 543.421 105.333 541.555 105.2C539.688 104.933 537.688 104.8 535.555 104.8C530.088 104.8 525.221 105.533 520.955 107C516.821 108.333 512.755 110.4 508.755 113.2C504.755 116 500.488 119.4 495.955 123.4V204H487.755ZM680.138 204V97.6H685.938L688.338 109.8C694.071 106.067 700.471 102.8 707.538 100C714.738 97.2 722.404 95.8 730.538 95.8C737.338 95.8 743.138 97.3333 747.938 100.4C752.738 103.467 756.404 107.333 758.938 112C762.404 109.467 766.671 107 771.738 104.6C776.938 102.067 782.404 100 788.138 98.4C794.004 96.6667 799.604 95.8 804.938 95.8C812.138 95.8 818.204 97.4 823.138 100.6C828.071 103.8 831.738 108.067 834.138 113.4C836.671 118.733 837.938 124.467 837.938 130.6V204H829.738V131C829.738 125.933 828.671 121.333 826.538 117.2C824.538 112.933 821.538 109.533 817.538 107C813.671 104.467 808.938 103.2 803.338 103.2C796.271 103.2 789.004 104.533 781.538 107.2C774.071 109.867 767.004 113.067 760.338 116.8C761.271 119.067 761.938 121.4 762.338 123.8C762.871 126.2 763.138 128.6 763.138 131V204H754.938V131C754.938 125.933 753.871 121.333 751.738 117.2C749.738 112.933 746.804 109.533 742.938 107C739.071 104.467 734.338 103.2 728.738 103.2C723.271 103.2 718.338 103.733 713.938 104.8C709.538 105.733 705.271 107.067 701.138 108.8C697.138 110.533 692.871 112.667 688.338 115.2V204H680.138Z" fill="black"/>
</svg>
