<svg width="20" height="20" viewBox="0 0 20 20" fill="none" xmlns="http://www.w3.org/2000/svg">
<path d="M9.49686 0C8.3598 0 7.43803 0.942559 7.43803 2.10526V2.21055C5.08867 2.6982 3.32039 4.82215 3.32039 7.36842V10.5263C3.32039 10.5263 3.17522 12.4924 2.80568 13.6842C2.57178 14.4385 2.09772 15.3672 1.73623 16.0216C1.53696 16.3824 1.78932 16.8421 2.19448 16.8421H17.8286C18.2338 16.8421 18.4862 16.3824 18.2869 16.0216C17.9254 15.3672 17.4513 14.4385 17.2174 13.6842C16.8479 12.4924 16.7027 10.5263 16.7027 10.5263V9.32943C16.3383 9.42364 15.9567 9.47368 15.5637 9.47368C13.0053 9.47368 10.9314 7.35293 10.9314 4.73684C10.9314 3.36457 11.502 2.1286 12.4139 1.26352C12.0963 0.519786 11.3707 0 10.5263 0H9.49686Z" fill="#fd9802"/>
<path d="M7.43803 17.8947H12.5851C12.5851 19.0574 11.6633 20 10.5263 20H9.49686C8.3598 20 7.43803 19.0574 7.43803 17.8947Z" fill="#fd9802"/>
<path d="M15.5637 8.42105C17.5536 8.42105 19.1667 6.77158 19.1667 4.73684C19.1667 2.70211 17.5536 1.05263 15.5637 1.05263C13.5739 1.05263 11.9608 2.70211 11.9608 4.73684C11.9608 6.77158 13.5739 8.42105 15.5637 8.42105Z" fill="#fd9802"/>
</svg>
