<svg width="23" height="20" viewBox="0 0 23 20" fill="none" xmlns="http://www.w3.org/2000/svg">
<path d="M10.5355 1.38656C10.0935 1.38656 9.81256 1.35411 9.5 1.66667L8.66667 2.5C8.04154 3.12512 7.26519 3.33333 6.38114 3.33333H6.16667C5.24619 3.33333 4.08333 4.49619 4.08333 5.41667V9.16667C4.08333 9.6269 4.1269 10 3.66667 10C3.20643 10 2.83334 9.6269 2.83334 9.16667V5.41667C2.83334 3.57572 4.32572 2.08333 6.16667 2.08333H6.38114C6.82317 2.08333 7.24709 1.90774 7.55965 1.59518L8.17852 0.97631C8.80364 0.351188 9.65149 0 10.5355 0H15.1311C16.0152 0 16.863 0.35119 17.4882 0.976311L18.107 1.59518C18.4196 1.90774 18.8435 2.08333 19.2855 2.08333H19.5C21.341 2.08333 22.8333 3.57572 22.8333 5.41667V14.1667C22.8333 16.0076 21.341 17.5 19.5 17.5H11.1667C10.7064 17.5 10.3333 17.1269 10.3333 16.6667C10.3333 16.2064 10.7064 16.25 11.1667 16.25H19.5C20.4205 16.25 21.5833 15.0871 21.5833 14.1667V5.41667C21.5833 4.49619 20.4205 3.33333 19.5 3.33333H19.2855C18.4015 3.33333 17.6251 3.12512 17 2.5L16.1667 1.66667C15.8541 1.35411 15.5732 1.38656 15.1311 1.38656H10.5355Z" fill="#FF6262"/>
<path fill-rule="evenodd" clip-rule="evenodd" d="M17.4167 9.58333C17.4167 12.1146 15.3646 14.1667 12.8333 14.1667C10.302 14.1667 8.25001 12.1146 8.25001 9.58333C8.25001 7.05203 10.302 5 12.8333 5C15.3646 5 17.4167 7.05203 17.4167 9.58333ZM16.1667 9.58333C16.1667 11.4243 14.6743 12.9167 12.8333 12.9167C10.9924 12.9167 9.50001 11.4243 9.50001 9.58333C9.50001 7.74238 10.9924 6.25 12.8333 6.25C14.6743 6.25 16.1667 7.74238 16.1667 9.58333Z" fill="#FF6262"/>
<path d="M19.0833 7.5C19.7737 7.5 20.3333 6.94036 20.3333 6.25C20.3333 5.55964 19.7737 5 19.0833 5C18.393 5 17.8333 5.55964 17.8333 6.25C17.8333 6.94036 18.393 7.5 19.0833 7.5Z" fill="#FF6262"/>
<path d="M5.75001 19.3578C5.75001 19.7125 5.46246 20 5.10776 20C4.75027 20 4.46158 19.7081 4.46556 19.3506L4.50001 16.25H0.979169C0.622487 16.25 0.333338 15.9609 0.333336 15.6042C0.333334 15.2475 0.622484 14.9583 0.979169 14.9583H4.45834V11.4792C4.45834 11.1225 4.74749 10.8333 5.10417 10.8333C5.46086 10.8333 5.75001 11.1225 5.75001 11.4792V15H8.87501C9.22018 15 9.50001 15.2798 9.50001 15.625C9.50001 15.9702 9.22018 16.25 8.87501 16.25H5.75001V19.3578Z" fill="#FF6262"/>
</svg>
