<svg width="0" height="0" class="hidden">
    <symbol fill="none" xmlns="http://www.w3.org/2000/svg" viewBox="0 0 30 30" id="appearance">
        <rect width="30" height="30" rx="7" fill="#FF6262"></rect>
        <path fill-rule="evenodd" clip-rule="evenodd" d="M15.0331 5.00005C15.0221 5.00002 15.011 5 15 5C9.47715 5 5 9.47715 5 15C5 20.5228 9.47715 25 15 25C15.1766 25 15.352 24.9954 15.5263 24.9864C20.8045 24.7127 25 20.3463 25 15C25 9.48819 20.5407 5.01789 15.0331 5.00005ZM15.5263 23.4049C19.932 23.1332 23.4211 19.4741 23.4211 15C23.4211 10.5259 19.932 6.86681 15.5263 6.59513V23.4049Z" fill="white"></path>
    </symbol>
    <symbol fill="none" xmlns="http://www.w3.org/2000/svg" viewBox="0 0 30 30" id="language">
        <rect width="30" height="30" rx="7" fill="#AF52DE"></rect>
        <path d="M24.7164 17.4263C24.9017 16.662 25 15.8634 25 15.0418C25 14.0774 24.8646 13.1447 24.6119 12.2619H19.4792C19.5398 13.0032 19.5714 13.7717 19.5714 14.5572C19.5714 15.5473 19.5212 16.5105 19.4259 17.4263H24.7164Z" fill="white"></path>
        <path d="M24.2117 18.9564H19.2177C19.044 19.9771 18.8104 20.9134 18.5256 21.7304C18.1975 22.6719 17.7783 23.5224 17.2513 24.1619C16.991 24.4777 16.6722 24.7784 16.2963 25C19.8709 24.5354 22.8534 22.1753 24.2117 18.9564Z" fill="white"></path>
        <path d="M18.1807 17.4263C18.2799 16.5205 18.3333 15.5568 18.3333 14.5572C18.3333 13.766 18.2998 12.9972 18.2367 12.2619H11.7633C11.7002 12.9972 11.6667 13.766 11.6667 14.5572C11.6667 15.5568 11.7201 16.5205 11.8193 17.4263H18.1807Z" fill="white"></path>
        <path d="M12.0395 18.9564H17.9605C17.4055 22.0247 16.2881 24.1208 15 24.1208C13.7119 24.1208 12.5945 22.0247 12.0395 18.9564Z" fill="white"></path>
        <path d="M10.5741 17.4263C10.4788 16.5105 10.4286 15.5473 10.4286 14.5572C10.4286 13.7717 10.4602 13.0032 10.5208 12.2619H5.38813C5.13539 13.1447 5 14.0774 5 15.0418C5 15.8634 5.09826 16.662 5.28362 17.4263H10.5741Z" fill="white"></path>
        <path d="M5.78834 18.9564H10.7823C10.956 19.9771 11.1896 20.9134 11.4744 21.7304C11.8025 22.6719 12.2217 23.5224 12.7487 24.1619C13.009 24.4777 13.3278 24.7784 13.7037 25C10.1291 24.5354 7.14658 22.1753 5.78834 18.9564Z" fill="white"></path>
        <path d="M17.53 5.32416C20.4076 6.07752 22.7805 8.08564 24.0346 10.7317H19.3077C19.1285 9.48702 18.8629 8.35175 18.5256 7.38396C18.2576 6.61484 17.9287 5.90641 17.53 5.32416Z" fill="white"></path>
        <path d="M15.1314 5.00085C16.4418 5.14663 17.5582 7.4628 18.056 10.7317H11.944C12.4418 7.4628 13.5582 5.14663 14.8686 5.00085C14.9123 5.00028 14.9561 5 15 5C15.0439 5 15.0877 5.00028 15.1314 5.00085Z" fill="white"></path>
        <path d="M11.4744 7.38396C11.1371 8.35175 10.8715 9.48702 10.6923 10.7317H5.96538C7.21947 8.08564 9.59243 6.07752 12.47 5.32416C12.0713 5.90641 11.7424 6.61484 11.4744 7.38396Z" fill="white"></path>
    </symbol>
    <symbol fill="none" xmlns="http://www.w3.org/2000/svg" viewBox="0 0 30 30" id="notification">
        <rect width="30" height="30" rx="7" fill="#FF453A"></rect>
        <path d="M14.4969 5C13.3598 5 12.438 5.94256 12.438 7.10526V7.21055C10.0887 7.6982 8.32039 9.82215 8.32039 12.3684V15.5263C8.32039 15.5263 8.17522 17.4924 7.80568 18.6842C7.57178 19.4385 7.09772 20.3672 6.73623 21.0216C6.53696 21.3824 6.78932 21.8421 7.19448 21.8421H22.8286C23.2338 21.8421 23.4862 21.3824 23.2869 21.0216C22.9254 20.3672 22.4513 19.4385 22.2174 18.6842C21.8479 17.4924 21.7027 15.5263 21.7027 15.5263V14.3294C21.3383 14.4236 20.9567 14.4737 20.5637 14.4737C18.0053 14.4737 15.9314 12.3529 15.9314 9.73684C15.9314 8.36457 16.502 7.1286 17.4139 6.26352C17.0963 5.51979 16.3707 5 15.5263 5H14.4969Z" fill="white"></path>
        <path d="M12.438 22.8947H17.5851C17.5851 24.0574 16.6633 25 15.5263 25H14.4969C13.3598 25 12.438 24.0574 12.438 22.8947Z" fill="white"></path>
        <path d="M20.5637 13.4211C22.5536 13.4211 24.1667 11.7716 24.1667 9.73684C24.1667 7.70211 22.5536 6.05263 20.5637 6.05263C18.5739 6.05263 16.9608 7.70211 16.9608 9.73684C16.9608 11.7716 18.5739 13.4211 20.5637 13.4211Z" fill="white"></path>
    </symbol>
    <symbol fill="none" xmlns="http://www.w3.org/2000/svg" viewBox="0 0 23 20" id="photo">
        <path d="M10.5355 1.38656C10.0935 1.38656 9.81256 1.35411 9.5 1.66667L8.66667 2.5C8.04154 3.12512 7.26519 3.33333 6.38114 3.33333H6.16667C5.24619 3.33333 4.08333 4.49619 4.08333 5.41667V9.16667C4.08333 9.6269 4.1269 10 3.66667 10C3.20643 10 2.83334 9.6269 2.83334 9.16667V5.41667C2.83334 3.57572 4.32572 2.08333 6.16667 2.08333H6.38114C6.82317 2.08333 7.24709 1.90774 7.55965 1.59518L8.17852 0.97631C8.80364 0.351188 9.65149 0 10.5355 0H15.1311C16.0152 0 16.863 0.35119 17.4882 0.976311L18.107 1.59518C18.4196 1.90774 18.8435 2.08333 19.2855 2.08333H19.5C21.341 2.08333 22.8333 3.57572 22.8333 5.41667V14.1667C22.8333 16.0076 21.341 17.5 19.5 17.5H11.1667C10.7064 17.5 10.3333 17.1269 10.3333 16.6667C10.3333 16.2064 10.7064 16.25 11.1667 16.25H19.5C20.4205 16.25 21.5833 15.0871 21.5833 14.1667V5.41667C21.5833 4.49619 20.4205 3.33333 19.5 3.33333H19.2855C18.4015 3.33333 17.6251 3.12512 17 2.5L16.1667 1.66667C15.8541 1.35411 15.5732 1.38656 15.1311 1.38656H10.5355Z" fill="#FF6262"></path>
        <path fill-rule="evenodd" clip-rule="evenodd" d="M17.4167 9.58333C17.4167 12.1146 15.3646 14.1667 12.8333 14.1667C10.302 14.1667 8.25001 12.1146 8.25001 9.58333C8.25001 7.05203 10.302 5 12.8333 5C15.3646 5 17.4167 7.05203 17.4167 9.58333ZM16.1667 9.58333C16.1667 11.4243 14.6743 12.9167 12.8333 12.9167C10.9924 12.9167 9.50001 11.4243 9.50001 9.58333C9.50001 7.74238 10.9924 6.25 12.8333 6.25C14.6743 6.25 16.1667 7.74238 16.1667 9.58333Z" fill="#FF6262"></path>
        <path d="M19.0833 7.5C19.7737 7.5 20.3333 6.94036 20.3333 6.25C20.3333 5.55964 19.7737 5 19.0833 5C18.393 5 17.8333 5.55964 17.8333 6.25C17.8333 6.94036 18.393 7.5 19.0833 7.5Z" fill="#FF6262"></path>
        <path d="M5.75001 19.3578C5.75001 19.7125 5.46246 20 5.10776 20C4.75027 20 4.46158 19.7081 4.46556 19.3506L4.50001 16.25H0.979169C0.622487 16.25 0.333338 15.9609 0.333336 15.6042C0.333334 15.2475 0.622484 14.9583 0.979169 14.9583H4.45834V11.4792C4.45834 11.1225 4.74749 10.8333 5.10417 10.8333C5.46086 10.8333 5.75001 11.1225 5.75001 11.4792V15H8.87501C9.22018 15 9.50001 15.2798 9.50001 15.625C9.50001 15.9702 9.22018 16.25 8.87501 16.25H5.75001V19.3578Z" fill="#FF6262"></path>
    </symbol>
</svg>