<svg width="0" height="0" class="hidden">
    <symbol fill="none" xmlns="http://www.w3.org/2000/svg" viewBox="0 0 30 26" id="allChats">
        <path d="M19.4697 3.14747C17.4537 1.20614 14.6332 0 11.5115 0C5.384 0 0.416672 4.64724 0.416672 10.3799C0.416672 13.6494 1.90069 16.3294 4.42592 18.232C4.74885 18.4754 5.04629 19.8273 4.32647 20.9628C4.03212 21.4272 3.70807 21.7885 3.45861 22.0666C3.09802 22.4685 2.89326 22.6968 3.15928 22.8116C3.43675 22.9314 5.07624 22.9907 6.25956 22.3077C7.18574 21.7732 7.74668 21.2399 8.12444 20.8809C8.4368 20.5839 8.62391 20.4061 8.78871 20.445C9.37958 20.5844 9.9893 20.6796 10.6136 20.7263C10.6221 20.727 10.6307 20.7276 10.6392 20.7282C10.927 20.7492 11.2179 20.7598 11.5115 20.7598C17.639 20.7598 22.6063 16.1126 22.6063 10.3799C22.6063 7.56775 21.411 5.01679 19.4697 3.14747Z" fill="#383838"></path>
        <path d="M29.6667 13.4939C29.6667 9.43866 27.181 5.92659 23.5574 4.21845C23.1166 4.01067 22.7194 4.54205 22.9503 4.98079C23.7993 6.59407 24.2806 8.42274 24.2806 10.3799C24.2806 16.1971 20.0283 20.8791 14.5092 22.1446C14.0245 22.2558 13.9172 22.9307 14.3828 23.1084C15.6753 23.6019 17.0896 23.8738 18.5718 23.8738C19.5113 23.8738 20.4235 23.7646 21.2946 23.5589C21.4594 23.52 21.6465 23.6979 21.9589 23.9948C22.3366 24.3539 22.8976 24.8872 23.8238 25.4217C25.0071 26.1046 26.6466 26.0454 26.9241 25.9256C27.1901 25.8108 26.9853 25.5825 26.6247 25.1805C26.3753 24.9024 26.0512 24.5412 25.7569 24.0768C25.0371 22.9412 25.3345 21.5893 25.6574 21.346C28.1827 19.4434 29.6667 16.7634 29.6667 13.4939Z" fill="#383838"></path>
    </symbol>
    <symbol fill="none" xmlns="http://www.w3.org/2000/svg" viewBox="0 0 30 30" id="appearance">
        <rect width="30" height="30" rx="7" fill="#FF6262"></rect>
        <path fill-rule="evenodd" clip-rule="evenodd" d="M15.0331 5.00005C15.0221 5.00002 15.011 5 15 5C9.47715 5 5 9.47715 5 15C5 20.5228 9.47715 25 15 25C15.1766 25 15.352 24.9954 15.5263 24.9864C20.8045 24.7127 25 20.3463 25 15C25 9.48819 20.5407 5.01789 15.0331 5.00005ZM15.5263 23.4049C19.932 23.1332 23.4211 19.4741 23.4211 15C23.4211 10.5259 19.932 6.86681 15.5263 6.59513V23.4049Z" fill="white"></path>
    </symbol>
    <symbol fill="none" xmlns="http://www.w3.org/2000/svg" viewBox="0 0 27 26" id="contacts">
        <path fill-rule="evenodd" clip-rule="evenodd" d="M26.5 13C26.5 20.1797 20.6797 26 13.5 26C6.3203 26 0.5 20.1797 0.5 13C0.5 5.8203 6.3203 0 13.5 0C20.6797 0 26.5 5.8203 26.5 13ZM17.5 10C17.5 12.2091 15.7091 14 13.5 14C11.2909 14 9.5 12.2091 9.5 10C9.5 7.79086 11.2909 6 13.5 6C15.7091 6 17.5 7.79086 17.5 10ZM21.0696 19.9231C20.8936 19.5007 20.6314 19.3274 20.1069 18.9809C18.2121 17.7289 15.9412 17 13.5001 17C11.059 17 8.78806 17.7289 6.89319 18.981C6.36874 19.3276 6.10652 19.5008 5.93056 19.9232C5.80846 20.2163 5.80847 20.7839 5.93057 21.0769C6.10654 21.4993 6.36876 21.6726 6.89321 22.0191C8.78805 23.2711 11.0589 24 13.5 24C15.9412 24 18.2121 23.2711 20.1069 22.019C20.6314 21.6724 20.8936 21.4992 21.0696 21.0768C21.1917 20.7838 21.1917 20.2161 21.0696 19.9231Z" fill="#383838"></path>
    </symbol>
    <symbol fill="none" xmlns="http://www.w3.org/2000/svg" viewBox="0 0 23 20" id="file">
        <path d="M10.5355 1.38656C10.0935 1.38656 9.81256 1.35411 9.5 1.66667L8.66667 2.5C8.04154 3.12512 7.26519 3.33333 6.38114 3.33333H6.16667C5.24619 3.33333 4.08333 4.49619 4.08333 5.41667V9.16667C4.08333 9.6269 4.1269 10 3.66667 10C3.20643 10 2.83334 9.6269 2.83334 9.16667V5.41667C2.83334 3.57572 4.32572 2.08333 6.16667 2.08333H6.38114C6.82317 2.08333 7.24709 1.90774 7.55965 1.59518L8.17852 0.97631C8.80364 0.351188 9.65149 0 10.5355 0H15.1311C16.0152 0 16.863 0.35119 17.4882 0.976311L18.107 1.59518C18.4196 1.90774 18.8435 2.08333 19.2855 2.08333H19.5C21.341 2.08333 22.8333 3.57572 22.8333 5.41667V14.1667C22.8333 16.0076 21.341 17.5 19.5 17.5H11.1667C10.7064 17.5 10.3333 17.1269 10.3333 16.6667C10.3333 16.2064 10.7064 16.25 11.1667 16.25H19.5C20.4205 16.25 21.5833 15.0871 21.5833 14.1667V5.41667C21.5833 4.49619 20.4205 3.33333 19.5 3.33333H19.2855C18.4015 3.33333 17.6251 3.12512 17 2.5L16.1667 1.66667C15.8541 1.35411 15.5732 1.38656 15.1311 1.38656H10.5355Z" fill="#FF6262"></path>
        <path fill-rule="evenodd" clip-rule="evenodd" d="M17.4167 9.58333C17.4167 12.1146 15.3646 14.1667 12.8333 14.1667C10.302 14.1667 8.25001 12.1146 8.25001 9.58333C8.25001 7.05203 10.302 5 12.8333 5C15.3646 5 17.4167 7.05203 17.4167 9.58333ZM16.1667 9.58333C16.1667 11.4243 14.6743 12.9167 12.8333 12.9167C10.9924 12.9167 9.50001 11.4243 9.50001 9.58333C9.50001 7.74238 10.9924 6.25 12.8333 6.25C14.6743 6.25 16.1667 7.74238 16.1667 9.58333Z" fill="#FF6262"></path>
        <path d="M19.0833 7.5C19.7737 7.5 20.3333 6.94036 20.3333 6.25C20.3333 5.55964 19.7737 5 19.0833 5C18.393 5 17.8333 5.55964 17.8333 6.25C17.8333 6.94036 18.393 7.5 19.0833 7.5Z" fill="#FF6262"></path>
        <path d="M5.75001 19.3578C5.75001 19.7125 5.46246 20 5.10776 20C4.75027 20 4.46158 19.7081 4.46556 19.3506L4.50001 16.25H0.979169C0.622487 16.25 0.333338 15.9609 0.333336 15.6042C0.333334 15.2475 0.622484 14.9583 0.979169 14.9583H4.45834V11.4792C4.45834 11.1225 4.74749 10.8333 5.10417 10.8333C5.46086 10.8333 5.75001 11.1225 5.75001 11.4792V15H8.87501C9.22018 15 9.50001 15.2798 9.50001 15.625C9.50001 15.9702 9.22018 16.25 8.87501 16.25H5.75001V19.3578Z" fill="#FF6262"></path>
    </symbol>
    <symbol fill="none" xmlns="http://www.w3.org/2000/svg" viewBox="0 0 30 30" id="language">
        <rect width="30" height="30" rx="7" fill="#AF52DE"></rect>
        <path d="M24.7164 17.4263C24.9017 16.662 25 15.8634 25 15.0418C25 14.0774 24.8646 13.1447 24.6119 12.2619H19.4792C19.5398 13.0032 19.5714 13.7717 19.5714 14.5572C19.5714 15.5473 19.5212 16.5105 19.4259 17.4263H24.7164Z" fill="white"></path>
        <path d="M24.2117 18.9564H19.2177C19.044 19.9771 18.8104 20.9134 18.5256 21.7304C18.1975 22.6719 17.7783 23.5224 17.2513 24.1619C16.991 24.4777 16.6722 24.7784 16.2963 25C19.8709 24.5354 22.8534 22.1753 24.2117 18.9564Z" fill="white"></path>
        <path d="M18.1807 17.4263C18.2799 16.5205 18.3333 15.5568 18.3333 14.5572C18.3333 13.766 18.2998 12.9972 18.2367 12.2619H11.7633C11.7002 12.9972 11.6667 13.766 11.6667 14.5572C11.6667 15.5568 11.7201 16.5205 11.8193 17.4263H18.1807Z" fill="white"></path>
        <path d="M12.0395 18.9564H17.9605C17.4055 22.0247 16.2881 24.1208 15 24.1208C13.7119 24.1208 12.5945 22.0247 12.0395 18.9564Z" fill="white"></path>
        <path d="M10.5741 17.4263C10.4788 16.5105 10.4286 15.5473 10.4286 14.5572C10.4286 13.7717 10.4602 13.0032 10.5208 12.2619H5.38813C5.13539 13.1447 5 14.0774 5 15.0418C5 15.8634 5.09826 16.662 5.28362 17.4263H10.5741Z" fill="white"></path>
        <path d="M5.78834 18.9564H10.7823C10.956 19.9771 11.1896 20.9134 11.4744 21.7304C11.8025 22.6719 12.2217 23.5224 12.7487 24.1619C13.009 24.4777 13.3278 24.7784 13.7037 25C10.1291 24.5354 7.14658 22.1753 5.78834 18.9564Z" fill="white"></path>
        <path d="M17.53 5.32416C20.4076 6.07752 22.7805 8.08564 24.0346 10.7317H19.3077C19.1285 9.48702 18.8629 8.35175 18.5256 7.38396C18.2576 6.61484 17.9287 5.90641 17.53 5.32416Z" fill="white"></path>
        <path d="M15.1314 5.00085C16.4418 5.14663 17.5582 7.4628 18.056 10.7317H11.944C12.4418 7.4628 13.5582 5.14663 14.8686 5.00085C14.9123 5.00028 14.9561 5 15 5C15.0439 5 15.0877 5.00028 15.1314 5.00085Z" fill="white"></path>
        <path d="M11.4744 7.38396C11.1371 8.35175 10.8715 9.48702 10.6923 10.7317H5.96538C7.21947 8.08564 9.59243 6.07752 12.47 5.32416C12.0713 5.90641 11.7424 6.61484 11.4744 7.38396Z" fill="white"></path>
    </symbol>
    <symbol fill="none" xmlns="http://www.w3.org/2000/svg" viewBox="0 0 20 20" id="notification">
        <path d="M9.49686 0C8.3598 0 7.43803 0.942559 7.43803 2.10526V2.21055C5.08867 2.6982 3.32039 4.82215 3.32039 7.36842V10.5263C3.32039 10.5263 3.17522 12.4924 2.80568 13.6842C2.57178 14.4385 2.09772 15.3672 1.73623 16.0216C1.53696 16.3824 1.78932 16.8421 2.19448 16.8421H17.8286C18.2338 16.8421 18.4862 16.3824 18.2869 16.0216C17.9254 15.3672 17.4513 14.4385 17.2174 13.6842C16.8479 12.4924 16.7027 10.5263 16.7027 10.5263V9.32943C16.3383 9.42364 15.9567 9.47368 15.5637 9.47368C13.0053 9.47368 10.9314 7.35293 10.9314 4.73684C10.9314 3.36457 11.502 2.1286 12.4139 1.26352C12.0963 0.519786 11.3707 0 10.5263 0H9.49686Z" fill="white"></path>
        <path d="M7.43803 17.8947H12.5851C12.5851 19.0574 11.6633 20 10.5263 20H9.49686C8.3598 20 7.43803 19.0574 7.43803 17.8947Z" fill="white"></path>
        <path d="M15.5637 8.42105C17.5536 8.42105 19.1667 6.77158 19.1667 4.73684C19.1667 2.70211 17.5536 1.05263 15.5637 1.05263C13.5739 1.05263 11.9608 2.70211 11.9608 4.73684C11.9608 6.77158 13.5739 8.42105 15.5637 8.42105Z" fill="white"></path>
    </symbol>
    <symbol fill="none" xmlns="http://www.w3.org/2000/svg" viewBox="0 0 27 26" id="settings">
        <path d="M20.2242 11.1174C20.3711 11.683 19.9093 12.2095 19.3249 12.2095L14.8875 12.21C14.5753 12.21 14.283 12.0569 14.1053 11.8001L11.1795 7.57297C10.857 7.10694 11.0387 6.43951 11.5838 6.28428C12.1927 6.11088 12.8355 6.01805 13.5 6.01805C16.6705 6.01805 19.3474 8.13128 20.199 11.026C20.2073 11.0544 20.2157 11.085 20.2242 11.1174Z" fill="#B3B3B3" fill-opacity="0.82"></path>
        <path d="M20.2242 11.1174C20.3711 11.683 19.9093 12.2095 19.3249 12.2095L14.8875 12.21C14.5753 12.21 14.283 12.0569 14.1053 11.8001L11.1795 7.57297C10.857 7.10694 11.0387 6.43951 11.5838 6.28428C12.1927 6.11088 12.8355 6.01805 13.5 6.01805C16.6705 6.01805 19.3474 8.13128 20.199 11.026C20.2073 11.0544 20.2157 11.085 20.2242 11.1174Z" fill="#383838"></path>
        <path d="M9.80264 8.35972C9.48229 7.89703 8.82281 7.80278 8.42804 8.20386C8.39767 8.23472 8.36951 8.26422 8.34437 8.29174C7.20999 9.5332 6.51805 11.1858 6.51805 13C6.51805 14.8293 7.22157 16.4943 8.37281 17.7392C8.39005 17.7578 8.40874 17.7774 8.42861 17.7978C8.82134 18.2001 9.48171 18.1038 9.80173 17.6416L12.6405 13.5415C12.866 13.2157 12.866 12.7843 12.6405 12.4585L9.80264 8.35972Z" fill="#B3B3B3" fill-opacity="0.82"></path>
        <path d="M9.80264 8.35972C9.48229 7.89703 8.82281 7.80278 8.42804 8.20386C8.39767 8.23472 8.36951 8.26422 8.34437 8.29174C7.20999 9.5332 6.51805 11.1858 6.51805 13C6.51805 14.8293 7.22157 16.4943 8.37281 17.7392C8.39005 17.7578 8.40874 17.7774 8.42861 17.7978C8.82134 18.2001 9.48171 18.1038 9.80173 17.6416L12.6405 13.5415C12.866 13.2157 12.866 12.7843 12.6405 12.4585L9.80264 8.35972Z" fill="#383838"></path>
        <path d="M11.7004 19.7478C12.2745 19.9006 12.8778 19.9819 13.5 19.9819C16.6487 19.9819 19.3106 17.8976 20.1812 15.0335C20.1948 14.9886 20.2087 14.9381 20.2224 14.8839C20.3665 14.3166 19.9077 13.7896 19.3225 13.7895L14.8866 13.7891C14.5744 13.7891 14.282 13.9423 14.1043 14.199L11.2231 18.3622C10.8782 18.8606 11.0754 19.571 11.6586 19.7363C11.6729 19.7404 11.6868 19.7442 11.7004 19.7478Z" fill="#B3B3B3" fill-opacity="0.82"></path>
        <path d="M11.7004 19.7478C12.2745 19.9006 12.8778 19.9819 13.5 19.9819C16.6487 19.9819 19.3106 17.8976 20.1812 15.0335C20.1948 14.9886 20.2087 14.9381 20.2224 14.8839C20.3665 14.3166 19.9077 13.7896 19.3225 13.7895L14.8866 13.7891C14.5744 13.7891 14.282 13.9423 14.1043 14.199L11.2231 18.3622C10.8782 18.8606 11.0754 19.571 11.6586 19.7363C11.6729 19.7404 11.6868 19.7442 11.7004 19.7478Z" fill="#383838"></path>
        <path fill-rule="evenodd" clip-rule="evenodd" d="M12.5488 0.951219C12.5488 0.425875 12.9747 0 13.5 0C14.0253 0 14.4512 0.425875 14.4512 0.951219V1.74032C14.4512 2.11995 14.6973 2.45577 15.0593 2.57009L15.6602 2.75983C16.0333 2.83813 16.399 2.93631 16.7563 3.0532L17.3645 3.18776C17.7352 3.26976 18.1162 3.10199 18.3061 2.77322L18.7006 2.08984C18.9633 1.63488 19.545 1.479 20 1.74167C20.455 2.00434 20.6108 2.5861 20.3482 3.04106L19.9536 3.72444C19.7638 4.05321 19.809 4.4671 20.0654 4.74711L20.5051 5.2274C20.7739 5.46985 21.0302 5.72606 21.2726 5.99491L21.7529 6.43461C22.0329 6.69096 22.4468 6.7362 22.7756 6.54638L23.4589 6.15183C23.9139 5.88916 24.4957 6.04504 24.7583 6.5C25.021 6.95496 24.8651 7.53672 24.4102 7.79939L23.7268 8.19394C23.398 8.38376 23.2302 8.76481 23.3122 9.13548L23.4468 9.74371C23.5637 10.101 23.6619 10.4667 23.7402 10.8398L23.9299 11.4407C24.0442 11.8027 24.38 12.0488 24.7597 12.0488H25.5488C26.0741 12.0488 26.5 12.4747 26.5 13C26.5 13.5253 26.0741 13.9512 25.5488 13.9512H24.7597C24.38 13.9512 24.0442 14.1973 23.9299 14.5593L23.7402 15.1602C23.6619 15.5333 23.5637 15.899 23.4468 16.2562L23.3122 16.8645C23.2302 17.2352 23.398 17.6162 23.7268 17.8061L24.4102 18.2006C24.8651 18.4633 25.021 19.045 24.7583 19.5C24.4957 19.955 23.9139 20.1108 23.4589 19.8482L22.7756 19.4536C22.4468 19.2638 22.0329 19.309 21.7529 19.5654L21.2726 20.0051C21.0301 20.274 20.7739 20.5302 20.5051 20.7726L20.0654 21.2529C19.809 21.5329 19.7638 21.9468 19.9536 22.2756L20.3482 22.9589C20.6108 23.4139 20.455 23.9957 20 24.2583C19.545 24.521 18.9633 24.3651 18.7006 23.9102L18.3061 23.2268C18.1162 22.898 17.7352 22.7302 17.3645 22.8122L16.7563 22.9468C16.399 23.0637 16.0333 23.1619 15.6602 23.2402L15.0593 23.4299C14.6973 23.5442 14.4512 23.88 14.4512 24.2597V25.0488C14.4512 25.5741 14.0253 26 13.5 26C12.9747 26 12.5488 25.5741 12.5488 25.0488V24.2597C12.5488 23.88 12.3027 23.5442 11.9407 23.4299L11.3398 23.2402C10.9667 23.1619 10.601 23.0637 10.2437 22.9468L9.63548 22.8122C9.26481 22.7302 8.88376 22.898 8.69394 23.2268L8.29939 23.9102C8.03672 24.3651 7.45496 24.521 7 24.2583C6.54504 23.9957 6.38916 23.4139 6.65183 22.9589L7.04638 22.2756C7.2362 21.9468 7.19096 21.5329 6.93461 21.2529L6.49493 20.7726C6.22605 20.5302 5.96983 20.2739 5.72735 20.0051L5.24711 19.5654C4.9671 19.309 4.55321 19.2638 4.22444 19.4536L3.54106 19.8482C3.0861 20.1108 2.50434 19.955 2.24167 19.5C1.979 19.045 2.13488 18.4633 2.58984 18.2006L3.27322 17.8061C3.602 17.6162 3.76976 17.2352 3.68776 16.8645L3.55322 16.2564C3.43632 15.899 3.33813 15.5333 3.25982 15.1602L3.07009 14.5593C2.95577 14.1973 2.61995 13.9512 2.24032 13.9512H1.45122C0.925875 13.9512 0.5 13.5253 0.5 13C0.5 12.4747 0.925875 12.0488 1.45122 12.0488H2.24032C2.61995 12.0488 2.95577 11.8027 3.07009 11.4407L3.25982 10.8399C3.33812 10.4668 3.43631 10.101 3.5532 9.74369L3.68776 9.13548C3.76976 8.76481 3.60199 8.38376 3.27322 8.19394L2.58984 7.79939C2.13488 7.53672 1.979 6.95496 2.24167 6.5C2.50434 6.04504 3.0861 5.88916 3.54106 6.15183L4.22444 6.54638C4.55321 6.7362 4.96709 6.69096 5.2471 6.43461L5.72737 5.99492C5.96984 5.72606 6.22605 5.46984 6.49491 5.22738L6.93461 4.74711C7.19096 4.4671 7.23619 4.05321 7.04638 3.72444L6.65183 3.04106C6.38915 2.5861 6.54504 2.00434 7 1.74167C7.45496 1.479 8.03671 1.63488 8.29939 2.08984L8.69394 2.77322C8.88375 3.10199 9.2648 3.26976 9.63548 3.18776L10.2437 3.0532C10.601 2.93631 10.9667 2.83813 11.3398 2.75982L11.9407 2.57009C12.3027 2.45577 12.5488 2.11995 12.5488 1.74032V0.951219ZM13.5 21.561C18.2281 21.561 22.061 17.7281 22.061 13C22.061 8.2719 18.2281 4.43902 13.5 4.43902C8.7719 4.43902 4.93902 8.2719 4.93902 13C4.93902 17.7281 8.7719 21.561 13.5 21.561Z" fill="#B3B3B3" fill-opacity="0.82"></path>
        <path fill-rule="evenodd" clip-rule="evenodd" d="M12.5488 0.951219C12.5488 0.425875 12.9747 0 13.5 0C14.0253 0 14.4512 0.425875 14.4512 0.951219V1.74032C14.4512 2.11995 14.6973 2.45577 15.0593 2.57009L15.6602 2.75983C16.0333 2.83813 16.399 2.93631 16.7563 3.0532L17.3645 3.18776C17.7352 3.26976 18.1162 3.10199 18.3061 2.77322L18.7006 2.08984C18.9633 1.63488 19.545 1.479 20 1.74167C20.455 2.00434 20.6108 2.5861 20.3482 3.04106L19.9536 3.72444C19.7638 4.05321 19.809 4.4671 20.0654 4.74711L20.5051 5.2274C20.7739 5.46985 21.0302 5.72606 21.2726 5.99491L21.7529 6.43461C22.0329 6.69096 22.4468 6.7362 22.7756 6.54638L23.4589 6.15183C23.9139 5.88916 24.4957 6.04504 24.7583 6.5C25.021 6.95496 24.8651 7.53672 24.4102 7.79939L23.7268 8.19394C23.398 8.38376 23.2302 8.76481 23.3122 9.13548L23.4468 9.74371C23.5637 10.101 23.6619 10.4667 23.7402 10.8398L23.9299 11.4407C24.0442 11.8027 24.38 12.0488 24.7597 12.0488H25.5488C26.0741 12.0488 26.5 12.4747 26.5 13C26.5 13.5253 26.0741 13.9512 25.5488 13.9512H24.7597C24.38 13.9512 24.0442 14.1973 23.9299 14.5593L23.7402 15.1602C23.6619 15.5333 23.5637 15.899 23.4468 16.2562L23.3122 16.8645C23.2302 17.2352 23.398 17.6162 23.7268 17.8061L24.4102 18.2006C24.8651 18.4633 25.021 19.045 24.7583 19.5C24.4957 19.955 23.9139 20.1108 23.4589 19.8482L22.7756 19.4536C22.4468 19.2638 22.0329 19.309 21.7529 19.5654L21.2726 20.0051C21.0301 20.274 20.7739 20.5302 20.5051 20.7726L20.0654 21.2529C19.809 21.5329 19.7638 21.9468 19.9536 22.2756L20.3482 22.9589C20.6108 23.4139 20.455 23.9957 20 24.2583C19.545 24.521 18.9633 24.3651 18.7006 23.9102L18.3061 23.2268C18.1162 22.898 17.7352 22.7302 17.3645 22.8122L16.7563 22.9468C16.399 23.0637 16.0333 23.1619 15.6602 23.2402L15.0593 23.4299C14.6973 23.5442 14.4512 23.88 14.4512 24.2597V25.0488C14.4512 25.5741 14.0253 26 13.5 26C12.9747 26 12.5488 25.5741 12.5488 25.0488V24.2597C12.5488 23.88 12.3027 23.5442 11.9407 23.4299L11.3398 23.2402C10.9667 23.1619 10.601 23.0637 10.2437 22.9468L9.63548 22.8122C9.26481 22.7302 8.88376 22.898 8.69394 23.2268L8.29939 23.9102C8.03672 24.3651 7.45496 24.521 7 24.2583C6.54504 23.9957 6.38916 23.4139 6.65183 22.9589L7.04638 22.2756C7.2362 21.9468 7.19096 21.5329 6.93461 21.2529L6.49493 20.7726C6.22605 20.5302 5.96983 20.2739 5.72735 20.0051L5.24711 19.5654C4.9671 19.309 4.55321 19.2638 4.22444 19.4536L3.54106 19.8482C3.0861 20.1108 2.50434 19.955 2.24167 19.5C1.979 19.045 2.13488 18.4633 2.58984 18.2006L3.27322 17.8061C3.602 17.6162 3.76976 17.2352 3.68776 16.8645L3.55322 16.2564C3.43632 15.899 3.33813 15.5333 3.25982 15.1602L3.07009 14.5593C2.95577 14.1973 2.61995 13.9512 2.24032 13.9512H1.45122C0.925875 13.9512 0.5 13.5253 0.5 13C0.5 12.4747 0.925875 12.0488 1.45122 12.0488H2.24032C2.61995 12.0488 2.95577 11.8027 3.07009 11.4407L3.25982 10.8399C3.33812 10.4668 3.43631 10.101 3.5532 9.74369L3.68776 9.13548C3.76976 8.76481 3.60199 8.38376 3.27322 8.19394L2.58984 7.79939C2.13488 7.53672 1.979 6.95496 2.24167 6.5C2.50434 6.04504 3.0861 5.88916 3.54106 6.15183L4.22444 6.54638C4.55321 6.7362 4.96709 6.69096 5.2471 6.43461L5.72737 5.99492C5.96984 5.72606 6.22605 5.46984 6.49491 5.22738L6.93461 4.74711C7.19096 4.4671 7.23619 4.05321 7.04638 3.72444L6.65183 3.04106C6.38915 2.5861 6.54504 2.00434 7 1.74167C7.45496 1.479 8.03671 1.63488 8.29939 2.08984L8.69394 2.77322C8.88375 3.10199 9.2648 3.26976 9.63548 3.18776L10.2437 3.0532C10.601 2.93631 10.9667 2.83813 11.3398 2.75982L11.9407 2.57009C12.3027 2.45577 12.5488 2.11995 12.5488 1.74032V0.951219ZM13.5 21.561C18.2281 21.561 22.061 17.7281 22.061 13C22.061 8.2719 18.2281 4.43902 13.5 4.43902C8.7719 4.43902 4.93902 8.2719 4.93902 13C4.93902 17.7281 8.7719 21.561 13.5 21.561Z" fill="#383838"></path>
    </symbol>
</svg>